<svg width="19" height="19" viewBox="0 0 19 19" fill="none" xmlns="http://www.w3.org/2000/svg">
<path id="Vector" d="M10.9615 1.46154C10.9615 0.653125 10.3084 0 9.5 0C8.69159 0 8.03846 0.653125 8.03846 1.46154V8.03846H1.46154C0.653125 8.03846 0 8.69159 0 9.5C0 10.3084 0.653125 10.9615 1.46154 10.9615H8.03846V17.5385C8.03846 18.3469 8.69159 19 9.5 19C10.3084 19 10.9615 18.3469 10.9615 17.5385V10.9615H17.5385C18.3469 10.9615 19 10.3084 19 9.5C19 8.69159 18.3469 8.03846 17.5385 8.03846H10.9615V1.46154Z" fill="#919191"/>
</svg>
