<svg width="56" height="56" viewBox="0 0 56 56" fill="none" xmlns="http://www.w3.org/2000/svg">
<g id="Group 37">
<g id="Ellipse 12" filter="url(#filter0_d_475_147)">
<circle cx="28" cy="24" r="24" fill="#5302FF"/>
</g>
<path id="Vector" d="M29.9615 15.4615C29.9615 14.6531 29.3084 14 28.5 14C27.6916 14 27.0385 14.6531 27.0385 15.4615V22.0385H20.4615C19.6531 22.0385 19 22.6916 19 23.5C19 24.3084 19.6531 24.9615 20.4615 24.9615H27.0385V31.5385C27.0385 32.3469 27.6916 33 28.5 33C29.3084 33 29.9615 32.3469 29.9615 31.5385V24.9615H36.5385C37.3469 24.9615 38 24.3084 38 23.5C38 22.6916 37.3469 22.0385 36.5385 22.0385H29.9615V15.4615Z" fill="white"/>
</g>
<defs>
<filter id="filter0_d_475_147" x="0" y="0" width="56" height="56" filterUnits="userSpaceOnUse" color-interpolation-filters="sRGB">
<feFlood flood-opacity="0" result="BackgroundImageFix"/>
<feColorMatrix in="SourceAlpha" type="matrix" values="0 0 0 0 0 0 0 0 0 0 0 0 0 0 0 0 0 0 127 0" result="hardAlpha"/>
<feOffset dy="4"/>
<feGaussianBlur stdDeviation="2"/>
<feComposite in2="hardAlpha" operator="out"/>
<feColorMatrix type="matrix" values="0 0 0 0 0 0 0 0 0 0 0 0 0 0 0 0 0 0 0.25 0"/>
<feBlend mode="normal" in2="BackgroundImageFix" result="effect1_dropShadow_475_147"/>
<feBlend mode="normal" in="SourceGraphic" in2="effect1_dropShadow_475_147" result="shape"/>
</filter>
</defs>
</svg>
