<svg width="20" height="23" viewBox="0 0 20 23" fill="none" xmlns="http://www.w3.org/2000/svg">
<path id="family" d="M13.5714 5.75C13.5714 4.79688 13.1952 3.88279 12.5254 3.20884C11.8556 2.53488 10.9472 2.15625 10 2.15625C9.0528 2.15625 8.14439 2.53488 7.47462 3.20884C6.80485 3.88279 6.42857 4.79688 6.42857 5.75C6.42857 6.70312 6.80485 7.61721 7.47462 8.29117C8.14439 8.96512 9.0528 9.34375 10 9.34375C10.9472 9.34375 11.8556 8.96512 12.5254 8.29117C13.1952 7.61721 13.5714 6.70312 13.5714 5.75ZM4.28571 5.75C4.28571 4.22501 4.88775 2.76247 5.95939 1.68414C7.03103 0.605802 8.48448 0 10 0C11.5155 0 12.969 0.605802 14.0406 1.68414C15.1122 2.76247 15.7143 4.22501 15.7143 5.75C15.7143 7.27499 15.1122 8.73753 14.0406 9.81586C12.969 10.8942 11.5155 11.5 10 11.5C8.48448 11.5 7.03103 10.8942 5.95939 9.81586C4.88775 8.73753 4.28571 7.27499 4.28571 5.75ZM2.20089 20.8438H17.8036C17.4062 18.0002 14.9777 15.8125 12.0446 15.8125H7.96429C5.03125 15.8125 2.60268 18.0002 2.20536 20.8438H2.20089ZM0 21.6658C0 17.241 3.5625 13.6562 7.95982 13.6562H12.0402C16.4375 13.6562 20 17.241 20 21.6658C20 22.4025 19.4062 23 18.6741 23H1.32589C0.59375 23 0 22.4025 0 21.6658Z" fill="black"/>
</svg>
