<svg  width="33" height="26" viewBox="0 0 33 26" fill="none" xmlns="http://www.w3.org/2000/svg">
<path id='icon-path' d="M4.95 6.5C4.95 4.77609 5.64535 3.12279 6.88309 1.90381C8.12083 0.68482 9.79957 0 11.55 0C13.3004 0 14.9792 0.68482 16.2169 1.90381C17.4546 3.12279 18.15 4.77609 18.15 6.5C18.15 8.22391 17.4546 9.87721 16.2169 11.0962C14.9792 12.3152 13.3004 13 11.55 13C9.79957 13 8.12083 12.3152 6.88309 11.0962C5.64535 9.87721 4.95 8.22391 4.95 6.5ZM0 24.4918C0 19.4898 4.11469 15.4375 9.19359 15.4375H13.9064C18.9853 15.4375 23.1 19.4898 23.1 24.4918C23.1 25.3246 22.4142 26 21.5686 26H1.53141C0.685781 26 0 25.3246 0 24.4918ZM31.417 26H24.3117C24.5902 25.5227 24.7552 24.9691 24.7552 24.375V23.9688C24.7552 20.8863 23.3578 18.1188 21.1561 16.2602C21.2798 16.2551 21.3984 16.25 21.5222 16.25H24.6881C29.2772 16.25 33 19.9164 33 24.441C33 25.3043 32.2884 26 31.417 26ZM22.275 13C20.6766 13 19.2328 12.3602 18.1861 11.3293C19.2019 9.97852 19.8 8.30781 19.8 6.5C19.8 5.13906 19.4597 3.8543 18.8564 2.72695C19.8155 2.03633 20.9962 1.625 22.275 1.625C25.4667 1.625 28.05 4.16914 28.05 7.3125C28.05 10.4559 25.4667 13 22.275 13Z" fill="#909090"/>
</svg>
