<svg width="211" height="166" viewBox="0 0 211 166" fill="none" xmlns="http://www.w3.org/2000/svg">
<path d="M31.65 41.5C31.65 30.4935 36.0961 19.9378 44.0101 12.1551C51.9241 4.37231 62.6579 0 73.85 0C85.0421 0 95.7759 4.37231 103.69 12.1551C111.604 19.9378 116.05 30.4935 116.05 41.5C116.05 52.5065 111.604 63.0622 103.69 70.8449C95.7759 78.6277 85.0421 83 73.85 83C62.6579 83 51.9241 78.6277 44.0101 70.8449C36.0961 63.0622 31.65 52.5065 31.65 41.5ZM0 156.371C0 124.435 26.3091 98.5625 58.7833 98.5625H88.9167C121.391 98.5625 147.7 124.435 147.7 156.371C147.7 161.688 143.315 166 137.908 166H9.79172C4.38484 166 0 161.688 0 156.371ZM200.879 166H155.448C157.228 162.952 158.283 159.418 158.283 155.625V153.031C158.283 133.351 149.348 115.681 135.271 103.815C136.062 103.782 136.82 103.75 137.612 103.75H157.854C187.197 103.75 211 127.159 211 156.046C211 161.558 206.45 166 200.879 166ZM142.425 83C132.205 83 122.973 78.9148 116.281 72.3332C122.776 63.709 126.6 53.0422 126.6 41.5C126.6 32.8109 124.424 24.6082 120.567 17.4105C126.699 13.0012 134.249 10.375 142.425 10.375C162.833 10.375 179.35 26.6184 179.35 46.6875C179.35 66.7566 162.833 83 142.425 83Z" fill="#5302FF"/>
</svg>
