<svg width="15" height="14" viewBox="0 0 15 14" fill="" xmlns="http://www.w3.org/2000/svg">
<path d="M1.39453 7.80124L6.68848 12.7436C6.9082 12.9487 7.19824 13.063 7.5 13.063C7.80176 13.063 8.0918 12.9487 8.31152 12.7436L13.6055 7.80124C14.4961 6.97214 15 5.80906 15 4.59324V4.42331C15 2.37546 13.5205 0.629368 11.502 0.292454C10.166 0.069798 8.80664 0.506321 7.85156 1.4614L7.5 1.81296L7.14844 1.4614C6.19336 0.506321 4.83398 0.069798 3.49805 0.292454C1.47949 0.629368 0 2.37546 0 4.42331V4.59324C0 5.80906 0.503906 6.97214 1.39453 7.80124Z" fill="#909090"/>
</svg>
