<svg width="19" height="17" viewBox="0 0 19 17" fill="none" xmlns="http://www.w3.org/2000/svg">
<path d="M19.0001 7.90625C19.0001 12.1701 14.7474 15.625 9.50012 15.625C8.12337 15.625 6.81712 15.3875 5.63704 14.9607C5.19544 15.2836 4.47551 15.7252 3.622 16.0963C2.73137 16.4822 1.65891 16.8125 0.593874 16.8125C0.352663 16.8125 0.137429 16.6678 0.0446552 16.4451C-0.0481183 16.2225 0.00383485 15.9701 0.170827 15.7994L0.18196 15.7883C0.193093 15.7771 0.207936 15.7623 0.230202 15.7363C0.271022 15.6918 0.334108 15.6213 0.412038 15.5248C0.564186 15.3393 0.768288 15.0646 0.9761 14.7232C1.34719 14.1072 1.69973 13.2982 1.77024 12.3891C0.65696 11.1273 0.00012392 9.57988 0.00012392 7.90625C0.00012392 3.64238 4.25286 0.1875 9.50012 0.1875C14.7474 0.1875 19.0001 3.64238 19.0001 7.90625Z" fill="black"/>
</svg>
