<svg width="20" height="21" viewBox="0 0 20 21" fill="none" xmlns="http://www.w3.org/2000/svg">
<g clip-path="url(#clip0_1_7634)">
<path d="M16.25 8.68555C16.25 10.4785 15.668 12.1348 14.6875 13.4785L19.6328 18.4277C20.1211 18.916 20.1211 19.709 19.6328 20.1973C19.1445 20.6855 18.3516 20.6855 17.8633 20.1973L12.918 15.248C11.5742 16.2324 9.91797 16.8105 8.125 16.8105C3.63672 16.8105 0 13.1738 0 8.68555C0 4.19727 3.63672 0.560547 8.125 0.560547C12.6133 0.560547 16.25 4.19727 16.25 8.68555ZM8.125 14.3105C8.86369 14.3105 9.59514 14.1651 10.2776 13.8824C10.9601 13.5997 11.5801 13.1854 12.1025 12.663C12.6248 12.1407 13.0391 11.5206 13.3218 10.8381C13.6045 10.1557 13.75 9.42423 13.75 8.68555C13.75 7.94686 13.6045 7.21541 13.3218 6.53295C13.0391 5.8505 12.6248 5.2304 12.1025 4.70807C11.5801 4.18574 10.9601 3.77141 10.2776 3.48872C9.59514 3.20604 8.86369 3.06055 8.125 3.06055C7.38631 3.06055 6.65486 3.20604 5.97241 3.48872C5.28995 3.77141 4.66985 4.18574 4.14752 4.70807C3.62519 5.2304 3.21086 5.8505 2.92818 6.53295C2.64549 7.21541 2.5 7.94686 2.5 8.68555C2.5 9.42423 2.64549 10.1557 2.92818 10.8381C3.21086 11.5206 3.62519 12.1407 4.14752 12.663C4.66985 13.1854 5.28995 13.5997 5.97241 13.8824C6.65486 14.1651 7.38631 14.3105 8.125 14.3105Z" fill="white"/>
</g>
<defs>
<clipPath id="clip0_1_7634">
<rect width="20" height="20" fill="white" transform="translate(0 0.560547)"/>
</clipPath>
</defs>
</svg>
