<svg width="15" height="16" viewBox="0 0 15 16" fill="none" xmlns="http://www.w3.org/2000/svg">
<g id="magnifying-glass-solid 2" clip-path="url(#clip0_1_7713)">
<path id="Vector" d="M12.1875 6.6543C12.1875 7.99902 11.751 9.24121 11.0156 10.249L14.7246 13.9609C15.0908 14.3271 15.0908 14.9219 14.7246 15.2881C14.3584 15.6543 13.7637 15.6543 13.3975 15.2881L9.68848 11.5762C8.68066 12.3145 7.43848 12.748 6.09375 12.748C2.72754 12.748 0 10.0205 0 6.6543C0 3.28809 2.72754 0.560547 6.09375 0.560547C9.45996 0.560547 12.1875 3.28809 12.1875 6.6543ZM6.09375 10.873C6.64776 10.873 7.19635 10.7639 7.7082 10.5519C8.22004 10.3399 8.68511 10.0292 9.07686 9.6374C9.4686 9.24566 9.77936 8.78059 9.99137 8.26874C10.2034 7.7569 10.3125 7.20831 10.3125 6.6543C10.3125 6.10028 10.2034 5.55169 9.99137 5.03985C9.77936 4.52801 9.4686 4.06294 9.07686 3.67119C8.68511 3.27944 8.22004 2.96869 7.7082 2.75668C7.19635 2.54467 6.64776 2.43555 6.09375 2.43555C5.53974 2.43555 4.99115 2.54467 4.4793 2.75668C3.96746 2.96869 3.50239 3.27944 3.11064 3.67119C2.7189 4.06294 2.40815 4.52801 2.19613 5.03985C1.98412 5.55169 1.875 6.10028 1.875 6.6543C1.875 7.20831 1.98412 7.7569 2.19613 8.26874C2.40815 8.78059 2.7189 9.24566 3.11064 9.6374C3.50239 10.0292 3.96746 10.3399 4.4793 10.5519C4.99115 10.7639 5.53974 10.873 6.09375 10.873Z" fill="#919191"/>
</g>
<defs>
<clipPath id="clip0_1_7713">
<rect width="15" height="15" fill="white" transform="translate(0 0.560547)"/>
</clipPath>
</defs>
</svg>
