<svg width="15" height="15" viewBox="0 0 15 15" fill="none" xmlns="http://www.w3.org/2000/svg">
<g id="comment-regular 1" clip-path="url(#clip0_531_437)">
<path id="Vector" d="M11.379 11.4639C11.0011 11.1885 10.5118 11.1182 10.0724 11.2764C9.29601 11.5576 8.42589 11.7188 7.50011 11.7188C3.84679 11.7188 1.40636 9.36035 1.40636 7.03125C1.40636 4.70215 3.84679 2.34375 7.50011 2.34375C11.1534 2.34375 13.5939 4.70215 13.5939 7.03125C13.5939 7.96875 13.2306 8.87109 12.548 9.64453C12.296 9.92871 12.173 10.3037 12.2023 10.6846C12.2433 11.2148 12.3692 11.7012 12.5333 12.1318C12.0353 11.9004 11.6222 11.6426 11.379 11.4668V11.4639ZM14.379 12.6533C14.3263 12.5742 14.2765 12.4951 14.2296 12.416C13.9366 11.9297 13.6583 11.291 13.6026 10.5732C14.4816 9.57422 15.0001 8.35254 15.0001 7.03125C15.0001 3.66504 11.6427 0.9375 7.50011 0.9375C3.35753 0.9375 0.000108719 3.66504 0.000108719 7.03125C0.000108719 10.3975 3.35753 13.125 7.50011 13.125C8.58702 13.125 9.61827 12.9375 10.5499 12.6006C10.8985 12.8555 11.4669 13.2041 12.1407 13.4971C12.5831 13.6904 13.087 13.8662 13.6085 13.9688C13.6319 13.9746 13.6554 13.9775 13.6788 13.9834C13.8077 14.0068 13.9337 14.0273 14.0655 14.0391C14.0714 14.0391 14.0802 14.042 14.086 14.042C14.2355 14.0566 14.3849 14.0654 14.5343 14.0654C14.7247 14.0654 14.8946 13.9512 14.9679 13.7754C15.0411 13.5996 15.0001 13.4004 14.8683 13.2656C14.7482 13.1426 14.6398 13.0107 14.5372 12.8701C14.4874 12.8027 14.4405 12.7354 14.3966 12.668L14.3878 12.6533H14.379Z" fill="#919191"/>
</g>
<defs>
<clipPath id="clip0_531_437">
<rect width="15" height="15" fill="white" transform="matrix(-1 0 0 1 15 0)"/>
</clipPath>
</defs>
</svg>
