<svg width="17" height="17" viewBox="0 0 17 17" fill="none" xmlns="http://www.w3.org/2000/svg">
<path id="revise icon" d="M14.7557 1.83944L15.1606 2.2443C15.4751 2.55882 15.4751 3.06741 15.1606 3.37859L14.1869 4.35561L12.6444 2.81312L13.6181 1.83944C13.9326 1.52492 14.4412 1.52492 14.7523 1.83944H14.7557ZM7.01983 8.44103L11.5101 3.9474L13.0526 5.48989L8.55897 9.98017C8.46194 10.0772 8.34149 10.1475 8.21099 10.1843L6.2536 10.743L6.81238 8.78566C6.84919 8.65517 6.91945 8.53471 7.01648 8.43768L7.01983 8.44103ZM12.4838 0.705162L5.8822 7.3034C5.5911 7.5945 5.38031 7.95252 5.26989 8.34399L4.31295 11.69C4.23264 11.971 4.3096 12.2722 4.51705 12.4796C4.7245 12.6871 5.02564 12.764 5.3067 12.6837L8.65266 11.7268C9.04748 11.613 9.4055 11.4022 9.69325 11.1145L16.2948 4.51621C17.2351 3.576 17.2351 2.05024 16.2948 1.11002L15.89 0.705162C14.9498 -0.235054 13.424 -0.235054 12.4838 0.705162ZM2.94445 2.01009C1.31831 2.01009 0 3.3284 0 4.95453V14.0556C0 15.6817 1.31831 17 2.94445 17H12.0455C13.6716 17 14.9899 15.6817 14.9899 14.0556V10.3081C14.9899 9.86306 14.6319 9.50504 14.1869 9.50504C13.7419 9.50504 13.3839 9.86306 13.3839 10.3081V14.0556C13.3839 14.795 12.7849 15.3939 12.0455 15.3939H2.94445C2.20499 15.3939 1.60606 14.795 1.60606 14.0556V4.95453C1.60606 4.21508 2.20499 3.61615 2.94445 3.61615H6.69193C7.13694 3.61615 7.49496 3.25813 7.49496 2.81312C7.49496 2.3681 7.13694 2.01009 6.69193 2.01009H2.94445Z" fill="#909090"/>
</svg>
